<?xml version="1.0" encoding="UTF-8"?><svg id="Layer_2" xmlns="http://www.w3.org/2000/svg" xmlns:xlink="http://www.w3.org/1999/xlink" viewBox="0 0 108 123.67"><defs><style>.cls-1{fill:url(#linear-gradient);}</style><linearGradient id="linear-gradient" x1="0" y1="61.83" x2="108" y2="61.83" gradientTransform="matrix(1, 0, 0, 1, 0, 0)" gradientUnits="userSpaceOnUse"><stop offset="0" stop-color="#45b9e6"/><stop offset="1" stop-color="#8e87e9"/></linearGradient></defs><g id="Layer_1-2"><path class="cls-1" d="M105,63.83h-5v5h-4v-5h-6v-4h6v-5h4v5h5v4h0Zm-29.65-14c-4.21-7.45-12.2-12.5-21.35-12.5-13.51,0-24.5,10.99-24.5,24.5s10.99,24.5,24.5,24.5c9.11,0,17.07-5,21.29-12.41l12.94,7.58c-6.83,11.84-19.61,19.83-34.23,19.83-21.78,0-39.5-17.72-39.5-39.5S32.22,22.33,54,22.33c14.68,0,27.51,8.06,34.32,19.98l-12.97,7.52h0Zm-3.35,14v-4h5v-5h5v5h5v4h-5v5h-5v-5h-5ZM107.5,31.34l.29-.17c-.58-1.09-1.53-2.07-2.43-2.59L57.12,.72c-.8-.46-1.93-.72-3.12-.72s-2.33,.26-3.12,.72L2.88,28.57c-1.66,.96-2.88,3.49-2.88,5.41v55.7c0,1.06,.24,2.3,.9,3.36l-.19,.11c.54,.82,1.21,1.53,1.92,1.94l48.24,27.85c.79,.46,1.93,.72,3.12,.72s2.33-.26,3.12-.72l48-27.85c1.66-.96,2.88-3.49,2.88-5.41V33.98c0-.83-.08-1.77-.5-2.65h0Z"/></g></svg>