<?xml version="1.0" encoding="UTF-8"?><svg id="Layer_2" xmlns="http://www.w3.org/2000/svg" xmlns:xlink="http://www.w3.org/1999/xlink" viewBox="0 0 110.48 125.46"><defs><style>.cls-1{fill:url(#linear-gradient);}</style><linearGradient id="linear-gradient" x1="0" y1="62.73" x2="110.48" y2="62.73" gradientTransform="matrix(1, 0, 0, 1, 0, 0)" gradientUnits="userSpaceOnUse"><stop offset="0" stop-color="#45b9e6"/><stop offset="1" stop-color="#8e87e9"/></linearGradient></defs><g id="Layer_1-2"><path class="cls-1" d="M89.59,25.86l-3.35,37.61h0v.67h0l-2.38,26.29-.26,2.34-28.36,7.84h0l-.02,.02-28.31-7.89-1.92-21.74h13.88l.99,11.05,15.39,4.17h0l15.44-4.22,1.63-18H40.03l-.28-3.04-.63-7.13-.33-3.83h34.75l1.26-14H21.88l-.28-3.04-.63-7.13-.33-3.83H89.92l-.33,3.86h0ZM0,0L10.05,112.88l45.12,12.58,45.24-12.63L110.48,0H0Z"/></g></svg>