<?xml version="1.0" encoding="UTF-8"?><svg id="Layer_2" xmlns="http://www.w3.org/2000/svg" xmlns:xlink="http://www.w3.org/1999/xlink" viewBox="0 0 139.95 124.84"><defs><style>.cls-1{fill:url(#linear-gradient-2);}.cls-2{fill:url(#linear-gradient);}</style><linearGradient id="linear-gradient" x1="27.25" y1="9.94" x2="113.13" y2="115.44" gradientTransform="matrix(1, 0, 0, 1, 0, 0)" gradientUnits="userSpaceOnUse"><stop offset="0" stop-color="#45b9e6"/><stop offset="1" stop-color="#8e87e9"/></linearGradient><linearGradient id="linear-gradient-2" x1="27.25" y1="9.94" x2="113.13" y2="115.43" xlink:href="#linear-gradient"/></defs><g id="Layer_1-2"><g><path class="cls-2" d="M69.97,49.7c-7.03,0-12.72,5.7-12.72,12.72s5.7,12.72,12.72,12.72,12.72-5.7,12.72-12.72-5.7-12.72-12.72-12.72h0Z"/><path class="cls-1" d="M116.07,77.44c-2.25,.86-4.64,1.64-7.14,2.35-1.76-5.63-4.03-11.47-6.75-17.37,2.72-5.9,4.98-11.74,6.74-17.36,15.4,4.39,24.66,11.09,24.66,17.36,0,5.31-6.38,10.78-17.52,15.02h0Zm-10.04,17.39c1.89,11.76,.34,20.03-4.25,22.68-1.11,.64-2.44,.97-3.94,.97-6.72,0-15.12-5.52-23.41-13.7,3.95-4.28,7.87-9.14,11.64-14.47,6.48-.6,12.68-1.55,18.43-2.85,.64,2.53,1.15,4.99,1.53,7.36h0Zm-67.86,22.68c-4.59-2.65-6.14-10.92-4.25-22.68,.38-2.38,.9-4.84,1.53-7.36,5.75,1.29,11.95,2.25,18.43,2.85,3.78,5.33,7.69,10.19,11.64,14.47-8.29,8.18-16.69,13.7-23.41,13.7-1.52,0-2.81-.32-3.94-.97h0ZM6.36,62.42c0-5.31,6.38-10.78,17.51-15.02,2.25-.86,4.64-1.64,7.14-2.35,1.76,5.63,4.03,11.47,6.75,17.37-2.72,5.9-4.98,11.74-6.74,17.36-15.4-4.39-24.66-11.09-24.66-17.36h0ZM33.92,30.01c-1.89-11.76-.34-20.03,4.25-22.68,1.11-.64,2.44-.97,3.94-.97,6.72,0,15.12,5.52,23.41,13.7-3.95,4.28-7.87,9.14-11.64,14.47-6.48,.6-12.68,1.55-18.43,2.85-.64-2.53-1.15-4.99-1.53-7.36h0Zm60.85,18.1c-1.32-2.29-2.68-4.51-4.06-6.68,4.27,.54,8.3,1.25,12.04,2.08-1.18,3.73-2.59,7.56-4.23,11.45-1.19-2.29-2.44-4.58-3.75-6.85h0Zm-24.79-23.4c2.63,2.9,5.21,6.01,7.7,9.26-2.54-.11-5.1-.17-7.7-.17s-5.16,.06-7.7,.17c2.48-3.25,5.07-6.36,7.7-9.26h0Zm-28.54,30.25c-1.64-3.9-3.05-7.73-4.23-11.46,3.82-.85,7.85-1.54,12.05-2.07-1.38,2.17-2.74,4.39-4.06,6.68-1.32,2.28-2.56,4.57-3.75,6.85h0Zm7.81,28.45c-4.27-.54-8.3-1.25-12.04-2.08,1.18-3.73,2.59-7.56,4.23-11.45,1.19,2.29,2.44,4.58,3.75,6.85,1.32,2.28,2.68,4.51,4.06,6.68h0Zm20.73,16.72c-2.63-2.9-5.21-6.01-7.7-9.26,2.54,.11,5.11,.17,7.7,.17s5.16-.06,7.7-.17c-2.48,3.25-5.07,6.36-7.7,9.26h0Zm28.54-30.25c1.64,3.9,3.05,7.73,4.23,11.46-3.82,.85-7.85,1.54-12.05,2.07,1.38-2.17,2.74-4.39,4.06-6.68,1.32-2.28,2.56-4.57,3.75-6.85h0Zm-9.26,3.67c-2.05,3.56-4.33,7.15-6.76,10.68-4.08,.3-8.27,.45-12.52,.45s-8.51-.16-12.52-.46c-2.43-3.52-4.7-7.12-6.76-10.67-2.14-3.7-4.11-7.43-5.9-11.13,1.79-3.7,3.76-7.43,5.9-11.13,2.05-3.56,4.33-7.15,6.76-10.68,4.08-.3,8.27-.45,12.52-.45s8.51,.16,12.52,.46c2.43,3.52,4.7,7.12,6.76,10.67,2.14,3.7,4.11,7.43,5.9,11.13-1.79,3.7-3.76,7.43-5.9,11.13h0ZM101.78,7.33c4.59,2.65,6.14,10.92,4.25,22.68-.38,2.38-.9,4.84-1.53,7.36-5.75-1.29-11.95-2.25-18.43-2.85-3.78-5.33-7.69-10.19-11.64-14.47,8.29-8.18,16.69-13.7,23.41-13.7,1.52,0,2.81,.32,3.94,.97h0Zm16.56,34.13c-2.42-.92-4.98-1.76-7.67-2.53,.68-2.71,1.24-5.35,1.65-7.91,2.37-14.72-.24-25.09-7.35-29.2-2.09-1.21-4.49-1.82-7.12-1.82-7.89,0-17.82,5.75-27.86,15.49C59.94,5.75,50.01,0,42.11,0c-2.63,0-5.03,.61-7.13,1.82-7.11,4.11-9.72,14.47-7.35,29.2,.41,2.55,.96,5.2,1.65,7.91-2.69,.76-5.25,1.61-7.67,2.53C7.68,46.77,0,54.21,0,62.42s7.68,15.66,21.61,20.96c2.42,.92,4.98,1.76,7.67,2.53-.68,2.71-1.24,5.35-1.65,7.91-2.37,14.72,.24,25.09,7.35,29.2,2.09,1.21,4.49,1.82,7.13,1.82,7.89,0,17.82-5.75,27.86-15.49,10.04,9.73,19.97,15.49,27.86,15.49,2.63,0,5.03-.61,7.12-1.82,7.11-4.1,9.72-14.47,7.35-29.2-.41-2.55-.96-5.2-1.65-7.91,2.69-.76,5.25-1.61,7.67-2.53,13.94-5.31,21.61-12.75,21.61-20.96s-7.68-15.66-21.61-20.96h0Z"/></g></g></svg>