<?xml version="1.0" encoding="UTF-8"?><svg id="Layer_2" xmlns="http://www.w3.org/2000/svg" viewBox="0 0 21 11.61"><defs><style>.cls-1{fill:#fff;}</style></defs><g id="Layer_1-2"><g id="Livello_80"><path class="cls-1" d="M13.42,5.8c0-1.61-1.31-2.92-2.92-2.92s-2.92,1.31-2.92,2.92,1.31,2.92,2.92,2.92c1.61,0,2.92-1.31,2.92-2.92m5.79,0c-1.99,2.63-5.15,4.34-8.71,4.34S3.78,8.43,1.79,5.8C3.78,3.16,6.94,1.46,10.5,1.46s6.72,1.7,8.71,4.34m1.79,0C18.81,2.32,14.93,0,10.5,0S2.19,2.32,0,5.8c2.19,3.49,6.08,5.81,10.5,5.81s8.31-2.32,10.5-5.81"/></g></g></svg>