<?xml version="1.0" encoding="UTF-8"?><svg id="Layer_2" xmlns="http://www.w3.org/2000/svg" viewBox="0 0 24 24"><defs><style>.cls-1{fill:#fff;}</style></defs><g id="Layer_1-2"><path class="cls-1" d="M19,0H5C2.24,0,0,2.24,0,5v14c0,2.76,2.24,5,5,5h14c2.76,0,5-2.24,5-5V5c0-2.76-2.24-5-5-5Zm-4.47,19.59c-.4,.08-.53-.17-.53-.38v-2.19c0-.75-.26-1.23-.55-1.48,1.78-.2,3.65-.88,3.65-3.95,0-.87-.31-1.59-.82-2.15,.08-.2,.36-1.02-.08-2.12,0,0-.67-.22-2.2,.82-.64-.18-1.32-.27-2-.27-.68,0-1.36,.09-2,.27-1.53-1.03-2.2-.82-2.2-.82-.43,1.1-.16,1.92-.08,2.12-.51,.56-.82,1.27-.82,2.15,0,3.06,1.87,3.75,3.65,3.95-.23,.2-.44,.55-.51,1.07-.46,.2-1.61,.56-2.33-.67,0,0-.42-.77-1.23-.82,0,0-.78-.01-.05,.49,0,0,.53,.25,.89,1.17,0,0,.46,1.43,2.69,.94v1.49c0,.21-.13,.46-.53,.39-3.18-1.06-5.47-4.06-5.47-7.59,0-4.42,3.58-8,8-8s8,3.58,8,8c0,3.53-2.29,6.53-5.47,7.59Z"/></g></svg>