<?xml version="1.0" encoding="UTF-8"?><svg id="Layer_2" xmlns="http://www.w3.org/2000/svg" xmlns:xlink="http://www.w3.org/1999/xlink" viewBox="0 0 92.06 124.83"><defs><style>.cls-1{fill:url(#linear-gradient-2);}.cls-2{fill:url(#linear-gradient-6);}.cls-3{fill:url(#linear-gradient-5);}.cls-4{fill:url(#linear-gradient-7);}.cls-5{fill:url(#linear-gradient-3);}.cls-6{fill:url(#linear-gradient);}.cls-7{fill:url(#linear-gradient-4);}.cls-8{fill:url(#linear-gradient-8);}</style><linearGradient id="linear-gradient" x1="2.85" y1="69.48" x2="78.4" y2="128.36" gradientTransform="matrix(1, 0, 0, 1, 0, 0)" gradientUnits="userSpaceOnUse"><stop offset="0" stop-color="#45b9e6"/><stop offset="1" stop-color="#8e87e9"/></linearGradient><linearGradient id="linear-gradient-2" x1="9.01" y1="61.57" x2="84.56" y2="120.46" xlink:href="#linear-gradient"/><linearGradient id="linear-gradient-3" x1="35.12" y1="28.07" x2="110.68" y2="86.96" xlink:href="#linear-gradient"/><linearGradient id="linear-gradient-4" x1="-1.98" y1="75.67" x2="73.57" y2="134.56" xlink:href="#linear-gradient"/><linearGradient id="linear-gradient-5" x1="14.91" y1="53.99" x2="90.47" y2="112.88" xlink:href="#linear-gradient"/><linearGradient id="linear-gradient-6" x1="26.62" y1="38.98" x2="102.17" y2="97.87" xlink:href="#linear-gradient"/><linearGradient id="linear-gradient-7" x1="38.65" y1="23.55" x2="114.2" y2="82.43" xlink:href="#linear-gradient"/><linearGradient id="linear-gradient-8" x1="-.76" y1="74.11" x2="74.79" y2="133" xlink:href="#linear-gradient"/></defs><g id="Layer_1-2"><g id="plain"><path class="cls-6" d="M29.65,96.53c-19.19,5.36,11.68,16.44,36.12,5.97-4-1.56-6.87-3.35-6.87-3.35-10.9,2.06-15.95,2.22-25.84,1.09-8.16-.94-3.4-3.71-3.4-3.71Z"/><path class="cls-1" d="M62.84,86.07c-14.44,2.78-22.79,2.69-33.35,1.6-8.17-.85-2.82-4.8-2.82-4.8-21.14,7.02,11.77,14.98,41.31,6.34-3.14-1.11-5.13-3.13-5.13-3.13Z"/><path class="cls-5" d="M74.16,25.5s-42.73,10.67-22.32,34.19c6.02,6.93-1.58,13.17-1.58,13.17,0,0,15.29-7.89,8.27-17.78-6.56-9.21-11.59-13.79,15.63-29.58Z"/><path class="cls-7" d="M84.15,106.64s3.53,2.91-3.89,5.16c-14.1,4.27-58.71,5.56-71.09,.17-4.45-1.94,3.9-4.63,6.53-5.19,2.74-.59,4.3-.48,4.3-.48-4.95-3.49-32.01,6.85-13.74,9.82,49.82,8.08,90.82-3.64,77.9-9.47Z"/><path class="cls-3" d="M67.03,76.31c2.39-1.63,5.7-3.05,5.7-3.05,0,0-9.42,1.68-18.81,2.47-11.49,.96-23.82,1.15-30.01,.33-14.65-1.96,8.03-7.35,8.03-7.35,0,0-8.81-.6-19.64,4.64-12.81,6.2,31.69,9.02,54.73,2.96Z"/><path class="cls-2" d="M72.64,91.45c-.11,.29-.47,.62-.47,.62,31.27-8.22,19.78-28.98,4.82-23.72-1.31,.46-2,1.54-2,1.54,0,0,.83-.33,2.68-.72,7.56-1.58,18.39,10.12-5.03,22.29Z"/><path class="cls-4" d="M46.21,68.48c-4.61-10.43-20.26-19.55,0-35.56C71.49,12.98,58.52,0,58.52,0c5.23,20.61-18.45,26.83-27,39.67-5.82,8.74,2.86,18.14,14.69,28.81Z"/><path class="cls-8" d="M73.49,120.23c-19.19,3.61-42.85,3.19-56.89,.87,0,0,2.87,2.38,17.65,3.33,22.48,1.44,57-.8,57.82-11.44,0,0-1.57,4.03-18.58,7.23Z"/></g></g></svg>