<?xml version="1.0" encoding="UTF-8"?><svg id="Layer_2" xmlns="http://www.w3.org/2000/svg" xmlns:xlink="http://www.w3.org/1999/xlink" viewBox="0 0 125.29 111.77"><defs><style>.cls-1{fill:url(#linear-gradient-2);}.cls-2{fill:url(#linear-gradient);}</style><linearGradient id="linear-gradient" x1="24.4" y1="8.9" x2="101.29" y2="103.35" gradientTransform="matrix(1, 0, 0, 1, 0, 0)" gradientUnits="userSpaceOnUse"><stop offset="0" stop-color="#45b9e6"/><stop offset="1" stop-color="#8e87e9"/></linearGradient><linearGradient id="linear-gradient-2" x1="24.4" y1="8.9" x2="101.29" y2="103.35" xlink:href="#linear-gradient"/></defs><g id="Layer_1-2"><g><path class="cls-2" d="M62.65,44.49c-6.29,0-11.39,5.1-11.39,11.39s5.1,11.39,11.39,11.39,11.39-5.1,11.39-11.39-5.1-11.39-11.39-11.39h0Z"/><path class="cls-1" d="M103.92,69.33c-2.01,.77-4.15,1.47-6.4,2.11-1.57-5.04-3.6-10.27-6.04-15.55,2.43-5.28,4.46-10.51,6.03-15.54,13.79,3.93,22.08,9.93,22.08,15.54,0,4.75-5.72,9.65-15.68,13.45h0Zm-8.99,15.57c1.69,10.53,.31,17.93-3.81,20.3-1,.58-2.19,.87-3.53,.87-6.02,0-13.53-4.94-20.96-12.26,3.53-3.83,7.04-8.18,10.42-12.95,5.8-.53,11.35-1.39,16.5-2.55,.57,2.26,1.03,4.47,1.37,6.59h0Zm-60.76,20.3c-4.11-2.37-5.5-9.77-3.81-20.3,.34-2.13,.8-4.33,1.37-6.59,5.15,1.16,10.7,2.01,16.5,2.55,3.38,4.77,6.89,9.12,10.42,12.95-7.43,7.32-14.94,12.26-20.96,12.26-1.37,0-2.52-.28-3.53-.87h0ZM5.7,55.88c0-4.75,5.72-9.65,15.68-13.45,2.01-.77,4.15-1.47,6.4-2.11,1.57,5.04,3.6,10.27,6.04,15.55-2.43,5.28-4.46,10.51-6.03,15.54-13.79-3.93-22.08-9.93-22.08-15.54h0ZM30.36,26.87c-1.69-10.53-.31-17.93,3.81-20.3,1-.58,2.18-.87,3.53-.87,6.02,0,13.53,4.94,20.96,12.26-3.53,3.83-7.04,8.18-10.42,12.95-5.8,.53-11.35,1.39-16.5,2.55-.57-2.26-1.03-4.47-1.37-6.59h0Zm54.47,16.2c-1.18-2.05-2.4-4.04-3.63-5.98,3.83,.49,7.43,1.12,10.78,1.86-1.05,3.34-2.32,6.77-3.79,10.25-1.07-2.05-2.18-4.1-3.36-6.14h0Zm-22.19-20.95c2.35,2.59,4.67,5.38,6.89,8.29-2.27-.1-4.57-.15-6.89-.15s-4.62,.05-6.89,.15c2.22-2.91,4.54-5.69,6.89-8.29h0Zm-25.56,27.09c-1.47-3.49-2.73-6.92-3.79-10.26,3.42-.76,7.03-1.38,10.78-1.85-1.24,1.94-2.45,3.93-3.63,5.98-1.18,2.04-2.29,4.09-3.36,6.14h0Zm6.99,25.47c-3.83-.49-7.43-1.12-10.78-1.86,1.05-3.34,2.32-6.77,3.79-10.25,1.07,2.05,2.18,4.1,3.36,6.14,1.18,2.05,2.4,4.04,3.63,5.98h0Zm18.56,14.97c-2.35-2.59-4.67-5.38-6.89-8.29,2.27,.1,4.57,.15,6.89,.15s4.62-.05,6.89-.15c-2.22,2.91-4.54,5.69-6.89,8.29h0Zm25.56-27.09c1.47,3.49,2.73,6.92,3.79,10.26-3.42,.76-7.03,1.38-10.78,1.85,1.24-1.94,2.45-3.93,3.63-5.98,1.18-2.04,2.29-4.09,3.36-6.14h0Zm-8.29,3.29c-1.84,3.19-3.88,6.4-6.05,9.56-3.65,.27-7.4,.41-11.21,.41s-7.62-.15-11.21-.41c-2.17-3.15-4.21-6.37-6.05-9.56-1.91-3.32-3.68-6.65-5.28-9.97,1.6-3.32,3.37-6.65,5.28-9.97,1.84-3.19,3.88-6.4,6.05-9.56,3.65-.27,7.4-.41,11.21-.41s7.62,.15,11.21,.41c2.17,3.15,4.21,6.37,6.05,9.56,1.91,3.32,3.68,6.65,5.28,9.97-1.6,3.32-3.37,6.65-5.28,9.97h0ZM91.12,6.56c4.11,2.37,5.5,9.78,3.81,20.3-.34,2.13-.8,4.33-1.37,6.59-5.15-1.16-10.7-2.01-16.5-2.55-3.38-4.77-6.89-9.12-10.42-12.95,7.43-7.32,14.94-12.26,20.96-12.26,1.37,0,2.52,.28,3.53,.87h0Zm14.82,30.55c-2.16-.82-4.46-1.58-6.87-2.26,.61-2.43,1.11-4.79,1.47-7.08,2.12-13.18-.21-22.47-6.58-26.14-1.87-1.08-4.02-1.63-6.38-1.63-7.07,0-15.96,5.15-24.94,13.87C53.66,5.15,44.77,0,37.7,0c-2.36,0-4.5,.55-6.38,1.63-6.37,3.68-8.7,12.96-6.58,26.14,.37,2.29,.86,4.65,1.47,7.08-2.41,.68-4.7,1.44-6.87,2.26C6.87,41.87,0,48.53,0,55.88s6.87,14.02,19.35,18.77c2.16,.82,4.46,1.58,6.87,2.26-.61,2.43-1.11,4.79-1.47,7.08-2.12,13.18,.21,22.47,6.58,26.14,1.87,1.08,4.02,1.63,6.38,1.63,7.07,0,15.96-5.15,24.94-13.87,8.99,8.71,17.88,13.87,24.94,13.87,2.36,0,4.5-.55,6.38-1.63,6.37-3.68,8.7-12.96,6.58-26.14-.37-2.29-.86-4.65-1.47-7.08,2.41-.68,4.7-1.44,6.87-2.26,12.48-4.75,19.35-11.42,19.35-18.77s-6.87-14.02-19.35-18.77h0Z"/></g></g></svg>