<?xml version="1.0" encoding="UTF-8"?><svg id="Layer_2" xmlns="http://www.w3.org/2000/svg" xmlns:xlink="http://www.w3.org/1999/xlink" viewBox="0 0 118.74 124.56"><defs><style>.cls-1{fill:url(#linear-gradient-2);}.cls-2{fill:url(#linear-gradient);}</style><linearGradient id="linear-gradient" x1="1.54" y1="16.69" x2="108.54" y2="120.02" gradientTransform="matrix(1, 0, 0, 1, 0, 0)" gradientUnits="userSpaceOnUse"><stop offset="0" stop-color="#45b9e6"/><stop offset="1" stop-color="#8e87e9"/></linearGradient><linearGradient id="linear-gradient-2" x1="-5.88" y1="24.38" x2="101.12" y2="127.71" xlink:href="#linear-gradient"/></defs><g id="Layer_1-2"><g><path class="cls-2" d="M46.02,54.04c.12-1.97-.2-3.94-.94-5.77-.69-1.18-2.01-1.83-3.37-1.68-1.35-.15-2.67,.5-3.35,1.68-.74,1.83-1.07,3.8-.94,5.77-.13,1.92,.19,3.84,.93,5.62,.72,1.14,2.03,1.76,3.37,1.6,1.34,.16,2.66-.46,3.39-1.6,.74-1.78,1.06-3.7,.93-5.62Zm0,0c.12-1.97-.2-3.94-.94-5.77-.69-1.18-2.01-1.83-3.37-1.68-1.35-.15-2.67,.5-3.35,1.68-.74,1.83-1.07,3.8-.94,5.77-.13,1.92,.19,3.84,.93,5.62,.72,1.14,2.03,1.76,3.37,1.6,1.34,.16,2.66-.46,3.39-1.6,.74-1.78,1.06-3.7,.93-5.62ZM82.61,17.63c0-2.69-.94-4.82-2.78-6.65-2.89-2.87-6.43-4.68-10.16-6.16-4.4-1.75-8.98-2.86-13.64-3.65C51.45,.4,46.83,0,42.2,0c-3.94,0-7.89,.3-11.81,.66-6.18,.56-12.21,1.93-18,4.19-3.43,1.34-6.67,3.04-9.38,5.59C1,12.32,0,14.58,0,17.38c.05,12.1,.02,24.2,.02,36.29,0,13.07,0,26.15,0,39.22,0,1.49,.35,2.9,1.13,4.19,1.28,2.11,3.12,3.64,5.17,4.93,4.71,2.95,9.91,4.66,15.29,5.92,4.01,.94,8.08,1.45,12.16,1.87,.34,.04,.68,0,1.05,0-.8-6.95,1.02-12.93,5.84-17.82,4.85-4.92,10.85-6.78,17.63-6.12,5.27-9.62,13.35-14.75,24.29-15.71v-1.45c0-17.02-.03-34.05,.03-51.08ZM27.93,63.84c-1.62,1.3-3.66,1.96-5.73,1.87-2.15-.05-4.3-.31-6.39-.8l-1.41-.25,.53-4.04h.27c2.21,.34,4.44,.54,6.67,.59,2.16,0,3.19-.85,3.19-2.6,.03-.56-.23-1.09-.68-1.41-.99-.58-2.07-1-3.19-1.24-2-.44-3.87-1.35-5.46-2.64-1.12-1.16-1.7-2.74-1.6-4.35-.14-1.97,.65-3.89,2.14-5.19,1.66-1.2,3.68-1.8,5.73-1.69,2.09,.05,4.16,.27,6.21,.65l1.44,.27-.39,4.07h-.29c-3.05-.34-5.24-.51-6.49-.51-3.29,0-3.29,1.6-3.29,2.08h0c-.02,.56,.27,1.08,.75,1.35,1.31,.67,2.68,1.2,4.09,1.6,1.73,.45,3.33,1.28,4.68,2.44,1,1.17,1.49,2.68,1.39,4.22,.17,2.09-.64,4.15-2.19,5.57Zm23.28-9.81c0,4.79-1.12,8.08-3.34,9.85l2.76,4.44-4.65,2.17-2.97-4.79c-.44,.03-.87,.03-1.31,0-3.48,0-5.96-.96-7.4-2.86-1.6-2.66-2.34-5.74-2.11-8.83-.22-3.13,.51-6.25,2.11-8.94,1.44-1.98,3.93-2.97,7.38-2.97s5.96,.99,7.38,2.97c1.62,2.7,2.36,5.82,2.14,8.96Zm16.55,11.27h-13.22v-22.82h5.08v18.27h8.15v4.55Zm1.54-47.57c-1.71,1.58-3.82,2.46-5.99,3.19-3.94,1.33-8.01,2.13-12.16,2.46-3.28,.27-6.57,.45-9.85,.68-6.39-.04-12.68-.7-18.88-2.2-2.57-.62-5.09-1.44-7.36-2.85-.82-.51-1.62-1.12-2.27-1.82-1.36-1.47-1.3-3.21,.04-4.71,1.2-1.34,2.73-2.16,4.35-2.85,3.73-1.6,7.66-2.4,11.66-2.97,4.68-.67,9.39-1.05,14.11-.87,3.65,.14,7.29,.52,10.93,.91,3.61,.38,7.13,1.21,10.53,2.51,1.79,.68,3.53,1.48,4.93,2.85,1.94,1.89,1.95,3.84-.03,5.68Zm-24.22,30.53c-.69-1.18-2.01-1.83-3.37-1.68-1.35-.15-2.67,.5-3.35,1.68-.74,1.83-1.07,3.8-.94,5.77-.13,1.92,.19,3.84,.93,5.62,.72,1.14,2.03,1.76,3.37,1.6,1.34,.16,2.66-.46,3.39-1.6,.74-1.78,1.06-3.7,.93-5.62,.12-1.97-.2-3.94-.94-5.77Z"/><path class="cls-1" d="M112.08,104.44c-.98-.35-2.01-.6-3.13-.93,1.16-6.64,.05-12.89-3.61-18.57-3.69-5.73-8.89-9.44-15.52-11.05-5.11-1.25-10.19-.96-15.11,.96-6.92,2.69-11.74,7.58-14.66,14.45-.5-.09-.82-.14-1.14-.19-2.93-.48-5.84-.47-8.69,.43-8.47,2.67-13.8,11.16-12.36,19.99,1.29,7.95,8.1,14.89,17.38,14.96,18.29,.15,36.57,.04,54.86,.03,.48,0,.98-.07,1.43-.23,3.95-1.43,6.13-4.35,7.01-8.38,1-4.57-1.96-9.86-6.46-11.47Zm-1.35,16.89c-.88,.27-1.84,.35-2.76,.35-7.82,.03-15.64,0-23.46,.02-9.28,.03-18.57,.11-27.85,.13-3.09,0-6.08-.45-8.78-2.12-4.75-2.94-7.38-7.21-7.51-12.79-.17-7.26,4.69-13.38,11.7-15.06,2.95-.71,5.9-.48,8.77,.56,.26,.1,.53,.18,.92,.3,2.35-7.41,6.96-12.74,14.3-15.46,4.81-1.78,9.73-1.9,14.61-.33,6.14,1.98,10.71,5.89,13.61,11.68,2.91,5.79,2.97,11.8,1.09,17.97,1.12-.06,2.08-.13,3.04-.15,3.86-.11,7.47,3.39,7.54,7.43,.05,3.41-2.19,6.54-5.21,7.47Z"/></g></g></svg>